<svg width="209" height="69" viewBox="0 0 209 69" fill="none" xmlns="http://www.w3.org/2000/svg">
<g filter="url(#filter0_d_199_8)">
<path d="M49.39 22.44L54.7 38.85H54.85L60.07 22.44C60.64 20.7 60.61 20.22 57.82 20.22V19.5H64.39V20.22C62.65 20.22 62.02 20.61 61.42 22.44L54.52 43.98H53.02L45.82 22.44C45.22 20.61 44.59 20.22 42.88 20.22V19.5H51.64V20.22C48.85 20.22 48.85 20.7 49.39 22.44ZM80.6181 19.5L80.7081 20.4L81.2781 25.56L80.4381 25.65C79.9881 21.54 79.2981 20.85 77.1681 20.85H72.8781C71.9481 20.85 71.4681 21.36 71.4681 22.26V30.51H75.1881C76.9581 30.51 77.4681 30.06 77.4681 26.97H78.1581V35.1H77.4681C77.4681 32.04 76.9581 31.59 75.1881 31.59H71.4681V40.44C71.4681 41.85 71.7081 42.15 72.8781 42.15H77.1381C79.3881 42.15 80.2581 41.28 81.4581 36.69L82.2981 36.93L80.8281 42.63L80.5881 43.5H64.8981V42.78C67.6881 42.78 68.0781 42.24 68.0781 40.41V22.59C68.0781 20.76 67.6881 20.22 64.8981 20.22V19.5H80.6181ZM92.4416 43.5H83.5016V42.78C86.2916 42.78 86.6816 42.24 86.6816 40.41V22.59C86.6816 20.76 86.2916 20.22 83.5016 20.22V19.5H92.1416C98.4416 19.5 104.112 23.25 104.112 31.62C104.112 39.66 98.8616 43.5 92.4416 43.5ZM92.0816 42.27C97.8116 42.27 100.572 37.74 100.572 31.83C100.572 24.96 96.8216 20.73 92.1116 20.73C91.4516 20.73 90.8816 20.82 90.6416 20.91C90.2516 21 90.0716 21.27 90.0716 21.69V40.98C90.0716 41.97 90.7616 42.27 92.0816 42.27ZM115.039 19.14L122.119 40.56C122.749 42.39 123.409 42.78 125.359 42.78V43.5H116.239V42.78C119.149 42.78 119.179 42.3 118.639 40.53L117.199 35.91H109.159L107.689 40.56C107.119 42.3 107.149 42.78 109.999 42.78V43.5H103.219V42.78C105.109 42.78 105.769 42.39 106.369 40.56L113.389 19.14H115.039ZM113.149 23.46L109.549 34.74H116.809L113.269 23.46H113.149ZM138.785 35.25L141.335 40.23C142.265 42.06 142.745 42.78 144.935 42.78V43.5H143.465C139.475 43.5 138.965 43.11 137.555 40.08L133.625 32.13H133.175C132.605 32.13 132.065 32.1 131.555 32.07V40.41C131.555 42.24 131.975 42.78 134.765 42.78V43.5H125.015V42.78C127.805 42.78 128.195 42.24 128.195 40.41V22.59C128.195 20.76 127.805 20.22 125.015 20.22V19.5H134.255C139.625 19.5 142.025 21.81 142.025 25.62C142.025 29.64 139.235 31.41 135.725 31.95C136.925 32.31 137.735 32.97 138.785 35.25ZM131.555 21.84V30.9C132.095 30.96 132.665 30.99 133.265 30.99C136.325 30.99 138.575 29.49 138.575 25.71C138.575 22.44 136.895 20.73 133.985 20.73C133.355 20.73 132.725 20.82 132.095 21.03C131.705 21.18 131.555 21.48 131.555 21.84ZM155.762 19.14L162.842 40.56C163.472 42.39 164.132 42.78 166.082 42.78V43.5H156.962V42.78C159.872 42.78 159.902 42.3 159.362 40.53L157.922 35.91H149.882L148.412 40.56C147.842 42.3 147.872 42.78 150.722 42.78V43.5H143.942V42.78C145.832 42.78 146.492 42.39 147.092 40.56L154.112 19.14H155.762ZM153.872 23.46L150.272 34.74H157.532L153.992 23.46H153.872Z" fill="white"/>
</g>
<defs>
<filter id="filter0_d_199_8" x="-4" y="0" width="217" height="77" filterUnits="userSpaceOnUse" color-interpolation-filters="sRGB">
<feFlood flood-opacity="0" result="BackgroundImageFix"/>
<feColorMatrix in="SourceAlpha" type="matrix" values="0 0 0 0 0 0 0 0 0 0 0 0 0 0 0 0 0 0 127 0" result="hardAlpha"/>
<feOffset dy="4"/>
<feGaussianBlur stdDeviation="2"/>
<feComposite in2="hardAlpha" operator="out"/>
<feColorMatrix type="matrix" values="0 0 0 0 0 0 0 0 0 0 0 0 0 0 0 0 0 0 0.25 0"/>
<feBlend mode="normal" in2="BackgroundImageFix" result="effect1_dropShadow_199_8"/>
<feBlend mode="normal" in="SourceGraphic" in2="effect1_dropShadow_199_8" result="shape"/>
</filter>
</defs>
</svg>
