<svg width="52" height="35" viewBox="0 0 52 35" fill="none" xmlns="http://www.w3.org/2000/svg">
<path d="M14.5045 16.9604C19.2878 16.9604 22.3739 20.6608 22.3739 25.4405C22.3739 30.6828 18.5163 35 11.8813 35C5.24629 35 0 29.6035 0 21.2775C0 12.6432 5.5549 4.163 19.2878 0V4.00881C10.6469 6.32159 5.8635 11.7181 5.8635 16.652C5.8635 18.5022 6.63501 19.5815 7.71513 19.5815C9.41246 19.5815 10.3383 16.9604 14.5045 16.9604ZM44.1306 16.9604C48.9139 16.9604 52 20.6608 52 25.4405C52 30.6828 48.1424 35 41.5074 35C34.8724 35 29.6261 29.6035 29.6261 21.2775C29.6261 12.6432 35.181 4.163 48.9139 0V4.00881C40.273 6.32159 35.4896 11.7181 35.4896 16.652C35.4896 18.5022 36.2611 19.5815 37.3413 19.5815C39.1929 19.5815 39.9644 16.9604 44.1306 16.9604Z" fill="#AEA797"/>
</svg>
